<?xml version="1.0" encoding="UTF-8" standalone="no"?>
<svg
   height="1200px"
   version="1.1"
   width="1200px"
   id="svg483"
   sodipodi:docname="voronoi.svg"
   inkscape:version="1.4.2 (f4327f4, 2025-05-13)"
   xmlns:inkscape="http://www.inkscape.org/namespaces/inkscape"
   xmlns:sodipodi="http://sodipodi.sourceforge.net/DTD/sodipodi-0.dtd"
   xmlns="http://www.w3.org/2000/svg"
   xmlns:svg="http://www.w3.org/2000/svg">
  <sodipodi:namedview
     id="namedview483"
     pagecolor="#ffffff"
     bordercolor="#ffffff"
     borderopacity="1"
     inkscape:showpageshadow="0"
     inkscape:pageopacity="0"
     inkscape:pagecheckerboard="false"
     inkscape:deskcolor="#505050"
     showguides="true"
     inkscape:zoom="1.545"
     inkscape:cx="641.10032"
     inkscape:cy="577.02265"
     inkscape:window-width="1920"
     inkscape:window-height="1129"
     inkscape:window-x="-8"
     inkscape:window-y="-8"
     inkscape:window-maximized="1"
     inkscape:current-layer="svg483">
    <sodipodi:guide
       position="400,800"
       orientation="-1,0"
       id="guide483"
       inkscape:locked="false"
       inkscape:label=""
       inkscape:color="rgb(0,134,229)" />
    <sodipodi:guide
       position="800,400"
       orientation="-1,0"
       id="guide484"
       inkscape:locked="false"
       inkscape:label=""
       inkscape:color="rgb(0,134,229)" />
    <sodipodi:guide
       position="400,800"
       orientation="0,1"
       id="guide485"
       inkscape:locked="false"
       inkscape:label=""
       inkscape:color="rgb(0,134,229)" />
    <sodipodi:guide
       position="800,400"
       orientation="0,1"
       id="guide486"
       inkscape:locked="false"
       inkscape:label=""
       inkscape:color="rgb(0,134,229)" />
    <sodipodi:guide
       position="508.73786,370.87379"
       orientation="1,0"
       id="guide487"
       inkscape:locked="false" />
  </sodipodi:namedview>
  <defs
     id="defs1" />
  <path
     id="polygon1"
     style="fill:#ff0000"
     d="m 418.06967,411.89507 21.72247,-21.4899 6.26322,4.03135 2.5594,10.03031 -5.532,14.94574 -14.11223,3.33995 -9.94828,-7.66034 z" />
  <path
     id="polygon3"
     style="fill:#0000ff"
     d="m 520.02812,399.61475 29.51894,-3.05401 1.83859,15.12035 -23.37982,3.59315 z" />
  <path
     id="polygon4"
     style="fill:#00ff77"
     d="m 587.64435,421.98725 -8.6429,-19.63173 19.98071,-7.16503 7.5922,21.07629 -16.33976,6.70405 z" />
  <path
     id="polygon5"
     style="fill:#0077ff"
     d="m 641.81307,429.46762 0.51633,0.41883 25.52152,-7.19556 1.9124,-3.93224 -3.52579,-15.12211 -17.0429,-8.7233 -13.41893,9.33068 z" />
  <path
     id="polygon6"
     style="fill:#ffff00"
     d="m 669.76332,418.75865 22.72477,-2.09427 6.03938,-10.07105 -3.26517,-9.7755 -16.61389,-5.27051 -12.41088,12.08922 z" />
  <path
     id="polygon7"
     style="fill:#ffff00"
     d="m 720.89397,398.76056 23.59745,1.80052 1.90099,4.07995 -21.11086,18.58634 -8.5491,-14.2103 z" />
  <path
     id="polygon8"
     style="fill:#77ff00"
     d="m 779.74247,416.20723 2.42979,-12.63691 -10.41261,-7.93109 -25.04485,9.15056 10.69999,15.15741 z" />
  <path
     id="polygon9"
     style="fill:#00ffff"
     d="m 418.06967,411.89507 -9.14462,-12.35067 -10.20051,-0.23961 2.93489,27.19763 17.36282,-11.41024 z" />
  <path
     id="polygon10"
     style="fill:#ff7700"
     d="m 443.08276,419.41257 17.09564,15.03524 9.59829,-0.9942 5.10105,-21.16204 -2.87038,-4.66801 -23.3926,-3.15673 z" />
  <path
     id="polygon11"
     style="fill:#00ff00"
     d="m 496.04416,409.2309 -21.16642,3.06067 -5.10105,21.16204 12.42286,8.79574 19.32539,-12.07991 z" />
  <path
     id="polygon12"
     style="fill:#00ff77"
     d="m 520.02812,399.61475 7.97771,15.65949 -4.6249,14.13896 -6.01873,4.16933 -15.83726,-3.41309 -5.48078,-20.93854 2.4167,-4.16491 10.50904,-7.58239 10.99421,2.04358 z" />
  <path
     id="polygon13"
     style="fill:#00ffff"
     d="m 528.00583,415.27424 23.37982,-3.59315 2.77298,1.83207 6.3278,16.46385 -18.57609,8.90734 -18.52941,-9.47115 z" />
  <path
     id="polygon14"
     style="fill:#ff0000"
     d="m 554.15863,413.51316 22.21034,-13.06359 2.63248,1.90595 8.6429,19.63173 -23.90552,9.93122 -3.2524,-1.94146 z" />
  <path
     id="polygon15"
     style="fill:#00ff77"
     d="m 608.70977,416.53057 17.46985,-14.53033 9.59608,2.24368 6.03737,25.2237 -22.7852,1.77931 z" />
  <path
     id="polygon16"
     style="fill:#77ff00"
     d="m 702.87596,437.90808 22.14997,-6.85461 0.25562,-7.8261 -8.5491,-14.2103 -18.20498,-2.42374 -6.03938,10.07105 z" />
  <path
     id="polygon17"
     style="fill:#ff7700"
     d="m 752.35121,431.52577 -24.63669,1.92988 -2.68859,-2.40218 0.25562,-7.8261 21.11086,-18.58634 0.32239,0.14876 10.69999,15.15741 z" />
  <path
     id="polygon18"
     style="fill:#00ffff"
     d="m 800.63558,427.33755 -15.51485,0.33246 -5.37826,-11.46278 2.42979,-12.63691 8.64838,-5.10038 7.9039,0.83485 2.93489,27.19763 z" />
  <path
     id="polygon19"
     style="fill:#00ff77"
     d="m 425.80615,439.0565 3.16438,-16.30398 -9.94828,-7.66034 -17.36282,11.41024 -1.02385,0.83513 12.22524,18.37366 z" />
  <path
     id="polygon20"
     style="fill:#ffff00"
     d="m 444.29362,456.43125 15.88478,-21.98344 -17.09564,-15.03524 -14.11223,3.33995 -3.16438,16.30398 z" />
  <path
     id="polygon21"
     style="fill:#00ff00"
     d="m 587.64435,421.98725 -23.90552,9.93122 5.16095,18.8088 26.93182,-2.1923 -5.597,-25.56414 z" />
  <path
     id="polygon22"
     style="fill:#00ffff"
     d="m 590.2346,422.97083 16.33976,-6.70405 2.13541,0.26379 10.3181,14.71636 -6.8142,16.73738 -14.9929,1.68873 -1.38917,-1.13807 z" />
  <path
     id="polygon23"
     style="fill:#7700ff"
     d="m 619.02787,431.24693 -6.8142,16.73738 10.28768,8.99788 21.72996,-0.56683 0.31068,-0.22847 -2.21259,-26.30044 -0.51633,-0.41883 z" />
  <path
     id="polygon24"
     style="fill:#0000ff"
     d="m 652.02948,457.48329 -7.48749,-1.2964 -2.21259,-26.30044 25.52152,-7.19556 9.24332,24.12868 z" />
  <path
     id="polygon25"
     style="fill:#00ff77"
     d="m 679.38998,447.86331 20.31306,-5.44374 3.17292,-4.51149 -10.38787,-21.2437 -22.72477,2.09427 -1.9124,3.93224 9.24332,24.12868 z" />
  <path
     id="polygon26"
     style="fill:#00ff77"
     d="m 783.05059,434.58124 -15.14629,11.97492 -5.39745,-0.0237 -10.15564,-15.00669 5.06358,-11.57857 22.32768,-3.73997 5.37826,11.46278 z" />
  <path
     id="polygon27"
     style="fill:#0000ff"
     d="m 812.86082,445.71121 -5.36374,9.53316 -8.79994,0.44985 -15.64655,-21.11298 2.07014,-6.91123 15.51485,-0.33246 z" />
  <path
     id="polygon28"
     style="fill:#ff7700"
     d="m 427.35349,471.87946 -7.6644,0.0396 -12.19201,-16.67468 5.36374,-9.53316 12.94533,-6.65471 18.48747,17.37475 0.018,1.62031 z" />
  <path
     id="polygon29"
     style="fill:#00ff77"
     d="m 444.31163,458.05156 -0.018,-1.62031 15.88478,-21.98344 9.59829,-0.9942 12.42286,8.79574 0.75688,4.54953 -9.37551,19.4037 -16.536,2.11456 z" />
  <path
     id="polygon30"
     style="fill:#0077ff"
     d="m 501.52494,430.16944 -19.32539,12.07991 0.75688,4.54953 22.49598,16.50457 12.04927,-9.54344 -0.13948,-20.17748 z" />
  <path
     id="polygon31"
     style="fill:#7700ff"
     d="m 517.3622,433.58253 0.13948,20.17748 22.97861,11.53631 2.05331,-1.65482 -0.62326,-24.75715 -18.52941,-9.47115 z" />
  <path
     id="polygon32"
     style="fill:#0077ff"
     d="m 560.48643,429.97701 3.2524,1.94146 5.16095,18.8088 -4.70914,10.00235 -21.65704,2.91188 -0.62326,-24.75715 z" />
  <path
     id="polygon33"
     style="fill:#00ff00"
     d="m 710.76139,468.75384 8.30627,-1.47261 11.985,-20.59607 -3.33814,-13.22951 -2.68859,-2.40218 -22.14997,6.85461 -3.17292,4.51149 z" />
  <path
     id="polygon34"
     style="fill:#77ff00"
     d="m 752.35121,431.52577 -24.63669,1.92988 3.33814,13.22951 19.22964,12.60829 12.22455,-12.76099 z" />
  <path
     id="polygon35"
     style="fill:#00ffff"
     d="m 786.00717,467.53928 12.68997,-11.84506 -15.64655,-21.11298 -15.14629,11.97492 14.35183,23.05327 z" />
  <path
     id="polygon36"
     style="fill:#00ffff"
     d="m 505.45241,463.30345 -1.34204,12.15762 -21.19013,4.44249 -9.33932,-13.70098 9.37551,-19.4037 z" />
  <path
     id="polygon37"
     style="fill:#00ff77"
     d="m 517.50168,453.76001 22.97861,11.53631 -2.99134,12.94631 -26.86539,5.39753 -6.51319,-8.17909 1.34204,-12.15762 z" />
  <path
     id="polygon38"
     style="fill:#ffff00"
     d="m 595.8316,448.53497 1.38917,1.13807 -3.06997,25.47737 -6.71023,2.59381 -14.62849,-3.65417 -8.62144,-13.36043 4.70914,-10.00235 z" />
  <path
     id="polygon39"
     style="fill:#ff7700"
     d="m 594.1508,475.15041 13.03726,5.84032 7.19194,-2.71987 8.12135,-21.28867 -10.28768,-8.99788 -14.9929,1.68873 z" />
  <path
     id="polygon40"
     style="fill:#7700ff"
     d="m 683.50755,472.07663 -4.11757,-24.21332 -2.29574,-1.04374 -25.06476,10.66372 17.49012,25.19451 z" />
  <path
     id="polygon41"
     style="fill:#0000ff"
     d="m 683.50755,472.07663 20.16815,5.49576 7.08569,-8.81855 -11.05835,-26.33427 -20.31306,5.44374 z" />
  <path
     id="polygon42"
     style="fill:#ff7700"
     d="m 736.771,477.01942 -17.70334,-9.73819 11.985,-20.59607 19.22964,12.60829 -0.53305,10.82196 z" />
  <path
     id="polygon43"
     style="fill:#00ff00"
     d="m 780.53833,473.28251 -18.70982,5.46055 -12.07926,-8.62765 0.53305,-10.82196 12.22455,-12.76099 5.39745,0.0237 14.35183,23.05327 z" />
  <path
     id="polygon44"
     style="fill:#00ffff"
     d="m 386.00717,467.53928 12.68997,-11.84506 8.79994,-0.44985 12.19201,16.67468 -7.30164,9.18508 z" />
  <path
     id="polygon45"
     style="fill:#0000ff"
     d="m 444.52644,493.69234 10.33218,-4.78614 2.1863,-20.58906 -12.73329,-10.26558 -16.95814,13.8279 11.84447,20.253 z" />
  <path
     id="polygon46"
     style="fill:#ff7700"
     d="m 454.85862,488.9062 10.11535,4.99381 15.51323,-7.04979 2.43304,-6.94666 -9.33932,-13.70098 -16.536,2.11456 z" />
  <path
     id="polygon47"
     style="fill:#ff0000"
     d="m 540.48029,465.29632 -2.99134,12.94631 6.93838,14.0927 8.89266,3.92258 4.96004,-1.08156 14.53205,-21.0863 -8.62144,-13.36043 -21.65704,2.91188 z" />
  <path
     id="polygon48"
     style="fill:#0077ff"
     d="m 614.38,478.27086 8.12135,-21.28867 21.72996,-0.56683 -6.70465,31.1157 z" />
  <path
     id="polygon49"
     style="fill:#ff7700"
     d="m 667.3039,489.72568 2.2157,-7.04788 -17.49012,-25.19451 -7.48749,-1.2964 -0.31068,0.22847 -6.70465,31.1157 1.67934,3.41249 z" />
  <path
     id="polygon50"
     style="fill:#ffff00"
     d="m 703.6757,477.57239 1.25873,10.96945 27.9422,10.94856 3.89437,-22.47098 -17.70334,-9.73819 -8.30627,1.47261 z" />
  <path
     id="polygon51"
     style="fill:#ffff00"
     d="m 812.38745,481.10413 -26.38028,-13.56485 -3.75104,2.07015 -1.7178,3.67308 9.15068,18.43717 20.91893,-6.56407 z" />
  <path
     id="polygon52"
     style="fill:#ff7700"
     d="m 389.68901,491.71968 -1.69697,5.93286 29.55543,14.82848 1.77693,-7.02162 -8.71646,-20.30379 z" />
  <path
     id="polygon53"
     style="fill:#0077ff"
     d="m 412.38745,481.10413 7.30164,-9.18508 7.6644,-0.0396 11.84447,20.253 -19.87356,13.32694 -8.71646,-20.30379 z" />
  <path
     id="polygon54"
     style="fill:#7700ff"
     d="m 482.92024,479.90356 -2.43304,6.94666 10.5634,18.05838 18.20666,-6.21349 1.3663,-15.05495 -6.51319,-8.17909 z" />
  <path
     id="polygon55"
     style="fill:#ff7700"
     d="m 537.48895,478.24263 -26.86539,5.39753 -1.3663,15.05495 12.93754,13.61362 22.23253,-19.9734 z" />
  <path
     id="polygon56"
     style="fill:#0000ff"
     d="m 574.78893,503.90509 -16.5089,-8.72874 14.53205,-21.0863 14.62849,3.65417 -3.18764,21.66885 z" />
  <path
     id="polygon57"
     style="fill:#ff0000"
     d="m 584.25293,499.41307 3.18764,-21.66885 6.71023,-2.59381 13.03726,5.84032 0.67911,25.68221 -5.87193,2.27537 z" />
  <path
     id="polygon58"
     style="fill:#ffff00"
     d="m 639.206,490.94355 -1.67934,-3.41249 -23.14666,-9.2602 -7.19194,2.71987 0.67911,25.68221 15.42833,5.83896 11.22009,-7.26148 z" />
  <path
     id="polygon59"
     style="fill:#00ff00"
     d="m 674.02295,502.96027 28.12365,-9.91431 2.78783,-4.50412 -1.25873,-10.96945 -20.16815,-5.49576 -13.98795,10.60117 -2.2157,7.04788 z" />
  <path
     id="polygon60"
     style="fill:#7700ff"
     d="m 733.49871,500.78442 4.10945,2.23815 23.0181,-8.9672 1.20225,-15.31231 -12.07926,-8.62765 -12.97825,6.90401 -3.89437,22.47098 z" />
  <path
     id="polygon61"
     style="fill:#0077ff"
     d="m 789.68901,491.71968 -1.69697,5.93286 -2.51121,3.02426 -16.15786,2.44475 -8.69671,-9.06618 1.20225,-15.31231 18.70982,-5.46055 z" />
  <path
     id="polygon62"
     style="fill:#ff0000"
     d="m 417.54747,512.48102 1.77693,-7.02162 19.87356,-13.32694 5.32848,1.55988 3.16422,24.62277 -0.3542,0.60348 -26.37548,-0.39546 -3.2616,-4.48471 z" />
  <path
     id="polygon63"
     style="fill:#ffff00"
     d="m 444.52644,493.69234 10.33218,-4.78614 10.11535,4.99381 2.61688,16.35263 -19.90019,8.06247 z" />
  <path
     id="polygon64"
     style="fill:#ff0000"
     d="m 467.59085,510.25264 13.08382,7.55898 4.34541,-1.51272 6.03052,-11.3903 -10.5634,-18.05838 -15.51323,7.04979 z" />
  <path
     id="polygon65"
     style="fill:#00ff00"
     d="m 553.31999,496.25791 -8.89266,-3.92258 -22.23253,19.9734 0.4143,4.91735 14.75486,11.46239 15.20084,-5.91027 z" />
  <path
     id="polygon66"
     style="fill:#00ffff"
     d="m 574.78893,503.90509 -16.5089,-8.72874 -4.96004,1.08156 -0.75519,26.52029 13.02487,5.65449 9.08924,-5.4592 z" />
  <path
     id="polygon67"
     style="fill:#77ff00"
     d="m 574.78893,503.90509 -0.11002,19.0684 16.86617,3.92565 10.45016,-17.95083 -17.74231,-9.53524 z" />
  <path
     id="polygon68"
     style="fill:#ff0000"
     d="m 673.93306,504.14529 -21.60931,13.78683 -17.80816,-12.6817 4.69041,-14.30687 28.0979,-1.21787 6.71905,13.23459 z" />
  <path
     id="polygon69"
     style="fill:#0000ff"
     d="m 673.93306,504.14529 10.41449,19.25748 10.74469,0.99313 10.55297,-6.78353 -3.49861,-24.56641 -28.12365,9.91431 z" />
  <path
     id="polygon70"
     style="fill:#00ffff"
     d="m 733.49871,500.78442 -17.70124,18.1823 -10.15226,-1.35435 -3.49861,-24.56641 2.78783,-4.50412 27.9422,10.94856 z" />
  <path
     id="polygon71"
     style="fill:#77ff00"
     d="m 737.60816,503.02257 10.14743,19.30374 17.01363,-6.05643 4.55375,-13.14833 -8.69671,-9.06618 z" />
  <path
     id="polygon73"
     style="fill:#7700ff"
     d="m 447.69066,518.31511 19.90019,-8.06247 13.08382,7.55898 -10.91672,24.15293 -0.23931,0.0946 -16.93623,-5.05339 -5.24595,-18.08718 z" />
  <path
     id="polygon74"
     style="fill:#0077ff"
     d="m 522.1948,512.30873 -12.93754,-13.61362 -18.20666,6.21349 -6.03052,11.3903 20.19776,15.27823 17.39126,-14.35105 z" />
  <path
     id="polygon75"
     style="fill:#0077ff"
     d="m 601.99524,508.94831 5.87193,-2.27537 15.42833,5.83896 0.62291,22.13012 -12.58664,8.37221 -12.72806,-0.64493 -7.05863,-15.47016 z" />
  <path
     id="polygon76"
     style="fill:#0000ff"
     d="m 634.51559,505.25042 -11.22009,7.26148 0.62291,22.13012 16.97671,7.49196 12.09364,-12.95315 -0.66501,-11.24871 z" />
  <path
     id="polygon77"
     style="fill:#77ff00"
     d="m 673.93306,504.14529 10.41449,19.25748 -9.59872,12.8385 -21.76007,-7.06044 -0.66501,-11.24871 z" />
  <path
     id="polygon78"
     style="fill:#00ff00"
     d="m 733.49871,500.78442 -17.70124,18.1823 11.20524,18.23032 20.65526,-14.50509 0.0976,-0.36564 -10.14743,-19.30374 z" />
  <path
     id="polygon79"
     style="fill:#ff7700"
     d="m 785.48083,500.6768 4.82041,22.87247 -1.70088,3.20869 -5.97261,4.21583 -2.66872,-0.2136 -15.18981,-14.49031 4.55375,-13.14833 z" />
  <path
     id="polygon80"
     style="fill:#ff7700"
     d="m 417.69938,514.03842 -27.39814,9.51085 -1.70088,3.20869 18.08323,12.61858 12.90699,0.99441 1.3704,-21.84782 z" />
  <path
     id="polygon81"
     style="fill:#0077ff"
     d="m 420.96098,518.52313 -1.3704,21.84782 0.0905,0.1593 21.60105,5.22013 11.30025,-8.74461 -5.24595,-18.08718 z" />
  <path
     id="polygon82"
     style="fill:#ffff00"
     d="m 480.67467,517.81162 4.34541,-1.51272 20.19776,15.27823 -1.40374,13.69748 -10.56214,5.33852 -23.49401,-8.64858 z" />
  <path
     id="polygon83"
     style="fill:#77ff00"
     d="m 516.78494,553.68743 -12.97084,-8.41282 1.40374,-13.69748 17.39126,-14.35105 14.75486,11.46239 -0.54587,12.43454 z" />
  <path
     id="polygon84"
     style="fill:#ff0000"
     d="m 550.12659,555.02207 -13.3085,-13.89906 0.54587,-12.43454 15.20084,-5.91027 13.02487,5.65449 0.52904,14.25714 -12.75862,12.56253 z" />
  <path
     id="polygon85"
     style="fill:#ff7700"
     d="m 574.67891,522.97349 -9.08924,5.4592 0.52904,14.25714 22.28524,11.24152 10.19976,-11.56205 -7.05863,-15.47016 z" />
  <path
     id="polygon86"
     style="fill:#0077ff"
     d="m 684.34755,523.40277 10.74469,0.99313 8.58792,20.07949 -8.35317,14.81248 -0.7549,0.28647 -19.33541,-6.11164 -0.48785,-17.22143 z" />
  <path
     id="polygon87"
     style="fill:#77ff00"
     d="m 705.64521,517.61237 10.15226,1.35435 11.20524,18.23032 -0.82627,4.10956 -22.49628,3.16879 -8.58792,-20.07949 z" />
  <path
     id="polygon88"
     style="fill:#0000ff"
     d="m 727.00271,537.19704 20.65526,-14.50509 11.60274,21.64931 -2.45511,11.12313 -23.72966,0.6885 -6.8995,-14.84629 z" />
  <path
     id="polygon89"
     style="fill:#7700ff"
     d="m 779.95903,530.76019 -20.69832,13.58107 -11.60274,-21.64931 0.0976,-0.36564 17.01363,-6.05643 z" />
  <path
     id="polygon90"
     style="fill:#ff0000"
     d="m 789.59664,554.19338 -1.54317,-0.46574 -5.42572,-22.75385 5.97261,-4.21583 18.08323,12.61858 z" />
  <path
     id="polygon91"
     style="fill:#7700ff"
     d="m 419.59058,540.37095 -12.90699,-0.99441 -17.08695,14.81684 7.2245,5.66917 17.95704,-0.99403 4.90293,-18.33827 z" />
  <path
     id="polygon92"
     style="fill:#ff7700"
     d="m 469.51864,542.05916 -5.81014,27.88612 -1.8987,1.6085 -19.39225,-4.0607 -1.13539,-21.7427 11.30025,-8.74461 z" />
  <path
     id="polygon93"
     style="fill:#00ff77"
     d="m 646.65708,558.41649 -5.76196,-16.28251 -16.97671,-7.49196 -12.58664,8.37221 8.74334,25.49187 23.46271,-6.14397 z" />
  <path
     id="polygon94"
     style="fill:#00ffff"
     d="m 652.98876,529.18083 -12.09364,12.95315 5.76196,16.28251 19.18481,1.74036 9.39479,-6.69415 -0.48785,-17.22143 z" />
  <path
     id="polygon95"
     style="fill:#ffff00"
     d="m 695.32699,559.28787 8.35317,-14.81248 22.49628,-3.16879 6.8995,14.84629 -2.18046,3.82036 -15.5071,7.87877 z" />
  <path
     id="polygon96"
     style="fill:#77ff00"
     d="m 782.62775,530.97379 5.42572,22.75385 -21.7615,12.77755 -9.48637,-11.0408 2.45511,-11.12313 20.69832,-13.58107 z" />
  <path
     id="polygon97"
     style="fill:#0077ff"
     d="m 414.77818,558.86852 6.20346,11.58921 -13.52758,10.35749 -11.57279,-4.33935 0.93987,-16.61332 z" />
  <path
     id="polygon98"
     style="fill:#ff0000"
     d="m 419.68111,540.53025 21.60105,5.22013 1.13539,21.7427 -10.61804,7.24383 -10.81787,-4.27918 -6.20346,-11.58921 z" />
  <path
     id="polygon99"
     style="fill:#0000ff"
     d="m 469.75795,541.96455 23.49401,8.64858 -3.90111,21.17348 -25.64235,-1.84133 5.81014,-27.88612 z" />
  <path
     id="polygon100"
     style="fill:#7700ff"
     d="m 519.7734,564.69751 -19.92235,19.34787 -2.97946,-0.48989 -7.52074,-11.76888 3.90111,-21.17348 10.56214,-5.33852 12.97084,8.41282 z" />
  <path
     id="polygon101"
     style="fill:#ff7700"
     d="m 533.72221,572.97314 -13.94881,-8.27563 -2.98846,-11.01008 20.03315,-12.56442 13.3085,13.89906 z" />
  <path
     id="polygon102"
     style="fill:#ffff00"
     d="m 567.54644,573.95107 19.24784,-6.53939 1.60967,-13.48033 -22.28524,-11.24152 -12.75862,12.56253 z" />
  <path
     id="polygon103"
     style="fill:#00ff00"
     d="m 598.60371,542.3693 12.72806,0.64493 8.74334,25.49187 -0.7184,1.12023 -26.03995,4.30398 -6.52248,-6.51863 1.60967,-13.48033 z" />
  <path
     id="polygon104"
     style="fill:#00ffff"
     d="m 766.40813,567.99592 -0.11616,-1.49073 21.7615,-12.77755 1.54317,0.46574 7.2245,5.66917 -0.93987,16.61332 -10.40066,5.46964 z" />
  <path
     id="polygon105"
     style="fill:#00ff77"
     d="m 440.89922,602.63582 -7.0896,-6.99137 -2.01011,-20.90754 10.61804,-7.24383 19.39225,4.0607 0.99548,15.83021 -16.32676,14.75537 z" />
  <path
     id="polygon106"
     style="fill:#00ffff"
     d="m 463.7085,569.94528 -1.8987,1.6085 0.99548,15.83021 18.56019,10.7261 15.50612,-14.5546 -7.52074,-11.76888 z" />
  <path
     id="polygon107"
     style="fill:#00ff00"
     d="m 537.70931,586.35427 -21.58384,13.34487 -16.27442,-15.65376 19.92235,-19.34787 13.94881,8.27563 z" />
  <path
     id="polygon108"
     style="fill:#0000ff"
     d="m 537.70931,586.35427 -3.9871,-13.38113 16.40438,-17.95107 3.2335,0.23029 14.18635,18.69871 -4.22163,8.6109 -24.76902,4.18268 z" />
  <path
     id="polygon109"
     style="fill:#ffff00"
     d="m 622.58993,588.34132 -3.23322,-18.71499 -26.03995,4.30398 3.29862,24.69932 4.09855,2.82519 z" />
  <path
     id="polygon110"
     style="fill:#7700ff"
     d="m 633.22156,593.36804 12.16192,-3.82591 -1.84566,-27.18 -23.46271,6.14397 -0.7184,1.12023 3.23322,18.71499 z" />
  <path
     id="polygon111"
     style="fill:#ff0000"
     d="m 648.35099,591.00001 21.97846,-5.44924 -4.48756,-25.39392 -19.18481,-1.74036 -3.11926,3.94564 1.84566,27.18 z" />
  <path
     id="polygon112"
     style="fill:#7700ff"
     d="m 690.20254,587.81283 -14.80137,1.22749 -5.07172,-3.48955 -4.48756,-25.39392 9.39479,-6.69415 19.33541,6.11164 z" />
  <path
     id="polygon113"
     style="fill:#00ffff"
     d="m 690.20254,587.81283 4.36955,-28.23849 0.7549,-0.28647 20.06139,8.56415 -1.59431,18.79421 -21.68204,2.52826 z" />
  <path
     id="polygon114"
     style="fill:#0000ff"
     d="m 738.62414,586.59509 -7.72866,-26.62184 -15.5071,7.87877 -1.59431,18.79421 4.84739,4.23326 z" />
  <path
     id="polygon115"
     style="fill:#00ff77"
     d="m 753.1848,591.06866 -3.4611,1.44217 -11.09956,-5.91574 -7.72866,-26.62184 2.18046,-3.82036 23.72966,-0.6885 9.48637,11.0408 0.11616,1.49073 z" />
  <path
     id="polygon116"
     style="fill:#ff7700"
     d="m 408.13484,600.61615 25.67478,-4.9717 -2.01011,-20.90754 -10.81787,-4.27918 -13.52758,10.35749 z" />
  <path
     id="polygon117"
     style="fill:#7700ff"
     d="m 538.55579,586.74465 8.30657,20.54964 20.35185,4.43671 4.98751,-8.31375 -8.87691,-20.85528 z" />
  <path
     id="polygon118"
     style="fill:#ff7700"
     d="m 567.54644,573.95107 19.24784,-6.53939 6.52248,6.51863 3.29862,24.69932 -24.41366,4.78762 -8.87691,-20.85528 z" />
  <path
     id="polygon119"
     style="fill:#ffff00"
     d="m 753.1848,591.06866 20.93736,12.23481 11.9013,-10.25387 -0.54285,-11.10409 -19.07248,-13.94959 z" />
  <path
     id="polygon120"
     style="fill:#ff0000"
     d="m 786.02346,593.0496 20.01032,9.78612 2.10106,-2.21957 -0.68078,-19.80093 -11.57279,-4.33935 -10.40066,5.46964 z" />
  <path
     id="polygon121"
     style="fill:#ff0000"
     d="m 416.31839,623.34541 17.96624,-1.11005 6.61459,-19.59954 -7.0896,-6.99137 -25.67478,4.9717 -2.10106,2.21957 -0.1468,1.16539 z" />
  <path
     id="polygon122"
     style="fill:#77ff00"
     d="m 446.47852,602.13936 19.02215,14.69523 15.73411,-15.34486 0.13069,-3.37964 -18.56019,-10.7261 z" />
  <path
     id="polygon123"
     style="fill:#0000ff"
     d="m 499.85105,584.04538 -2.97946,-0.48989 -15.50612,14.5546 -0.13069,3.37964 15.42396,19.04083 18.82968,-7.1174 0.63705,-13.71402 z" />
  <path
     id="polygon124"
     style="fill:#ffff00"
     d="m 537.70931,586.35427 -21.58384,13.34487 -0.63705,13.71402 2.75784,2.62559 17.4243,3.12003 11.1918,-11.86449 -8.30657,-20.54964 z" />
  <path
     id="polygon125"
     style="fill:#ff0000"
     d="m 633.22156,593.36804 -3.74208,26.00452 -26.15635,-10.99539 -2.6092,-6.92235 21.876,-13.1135 z" />
  <path
     id="polygon126"
     style="fill:#77ff00"
     d="m 633.22156,593.36804 12.16192,-3.82591 2.96751,1.45788 7.58569,26.3967 -3.48884,4.20444 -19.30571,3.34108 -3.66265,-5.56967 z" />
  <path
     id="polygon127"
     style="fill:#ffff00"
     d="m 655.93668,617.39671 -7.58569,-26.3967 21.97846,-5.44924 5.07172,3.48955 -5.12724,24.3167 z" />
  <path
     id="polygon128"
     style="fill:#ff0000"
     d="m 682.7603,620.18567 13.86225,-11.12023 -4.51052,-19.89095 -1.90949,-1.36166 -14.80137,1.22749 -5.12724,24.3167 z" />
  <path
     id="polygon129"
     style="fill:#00ff00"
     d="m 717.99738,612.00624 -5.20938,2.84382 -16.16545,-5.78462 -4.51052,-19.89095 21.68204,-2.52826 4.84739,4.23326 z" />
  <path
     id="polygon130"
     style="fill:#0077ff"
     d="m 742.90929,613.19592 6.81441,-20.68509 -11.09956,-5.91574 -19.98268,4.2844 -0.64408,21.12675 17.2831,4.6759 z" />
  <path
     id="polygon131"
     style="fill:#77ff00"
     d="m 753.1848,591.06866 -3.4611,1.44217 -6.81441,20.68509 17.43256,13.5146 1.52877,-0.0604 13.51097,-15.12733 -1.25943,-8.21933 z" />
  <path
     id="polygon132"
     style="fill:#0077ff"
     d="m 786.02346,593.0496 20.01032,9.78612 -0.1468,1.16539 -16.5446,14.88593 -13.96079,-7.36424 -1.25943,-8.21933 z" />
  <path
     id="polygon133"
     style="fill:#00ff77"
     d="m 391.75946,630.77446 -2.41708,-11.88742 16.5446,-14.88593 10.43141,19.3443 -7.51517,10.81825 z" />
  <path
     id="polygon134"
     style="fill:#7700ff"
     d="m 441.55257,635.08454 -7.26794,-12.84918 6.61459,-19.59954 5.5793,-0.49646 19.02215,14.69523 0.4149,4.97599 -16.35706,13.9843 z" />
  <path
     id="polygon135"
     style="fill:#0077ff"
     d="m 481.23478,601.48973 -15.73411,15.34486 0.4149,4.97599 19.37802,15.01809 2.61217,0.12147 8.75298,-16.41958 z" />
  <path
     id="polygon136"
     style="fill:#00ffff"
     d="m 547.80312,638.84311 -12.13256,-19.68433 11.1918,-11.86449 20.35185,4.43671 0.13139,1.45753 -15.44636,24.41648 z" />
  <path
     id="polygon137"
     style="fill:#0000ff"
     d="m 603.32313,608.37717 -8.31941,24.10884 -7.97106,1.64696 -19.68706,-20.94444 -0.13139,-1.45753 4.98751,-8.31375 24.41366,-4.78762 4.09855,2.82519 z" />
  <path
     id="polygon138"
     style="fill:#ff7700"
     d="m 607.40145,641.62026 -12.39773,-9.13425 8.31941,-24.10884 26.15635,10.99539 3.66265,5.56967 -0.99339,2.3801 z" />
  <path
     id="polygon139"
     style="fill:#ff7700"
     d="m 684.83649,629.49768 12.86769,7.66639 10.92509,-4.11564 4.15873,-18.19837 -16.16545,-5.78462 -13.86225,11.12023 z" />
  <path
     id="polygon140"
     style="fill:#ff0000"
     d="m 761.87062,626.65013 13.51097,-15.12733 13.96079,7.36424 2.41708,11.88742 -11.83846,12.50223 z" />
  <path
     id="polygon141"
     style="fill:#00ffff"
     d="m 428.97531,654.87721 12.57726,-19.79267 -7.26794,-12.84918 -17.96624,1.11005 -7.51517,10.81825 0.7269,2.31776 12.60948,17.73568 z" />
  <path
     id="polygon142"
     style="fill:#00ff00"
     d="m 463.65732,651.43569 21.63627,-14.60702 -19.37802,-15.01809 -16.35706,13.9843 z" />
  <path
     id="polygon143"
     style="fill:#00ff77"
     d="m 496.65874,620.53056 -8.75298,16.41958 11.10595,14.79192 20.72807,-5.85338 -1.49352,-29.84993 -2.75784,-2.62559 z" />
  <path
     id="polygon144"
     style="fill:#7700ff"
     d="m 547.80312,638.84311 -12.13256,-19.68433 -17.4243,-3.12003 1.49352,29.84993 6.80396,2.80162 18.49207,-6.09138 z" />
  <path
     id="polygon145"
     style="fill:#00ff77"
     d="m 551.89924,637.60501 15.44636,-24.41648 19.68706,20.94444 -10.88722,13.72565 z" />
  <path
     id="polygon146"
     style="fill:#0077ff"
     d="m 632.14874,627.32233 0.99339,-2.3801 19.30571,-3.34108 12.0629,24.58632 -23.02106,8.98838 -3.17509,-1.66778 z" />
  <path
     id="polygon147"
     style="fill:#0000ff"
     d="m 652.44784,621.60115 12.0629,24.58632 2.74967,1.14805 17.57608,-17.83784 -2.07619,-9.31201 -12.48637,-6.82865 -14.33725,4.03969 z" />
  <path
     id="polygon148"
     style="fill:#ffff00"
     d="m 725.10331,646.00223 -16.47404,-12.9538 4.15873,-18.19837 5.20938,-2.84382 17.2831,4.6759 -3.45575,25.66475 z" />
  <path
     id="polygon149"
     style="fill:#0000ff"
     d="m 731.82473,642.34689 3.45575,-25.66475 7.62881,-3.48622 17.43256,13.5146 -12.70791,19.30808 z" />
  <path
     id="polygon150"
     style="fill:#ff0000"
     d="m 422.1396,654.2171 -12.60948,-17.73568 -15.88207,18.83246 12.2456,10.03615 z" />
  <path
     id="polygon151"
     style="fill:#0000ff"
     d="m 428.97531,654.87721 12.57726,-19.79267 8.00594,0.71034 14.09881,15.64081 -1.13592,8.85759 -15.8049,8.093 -10.25704,-3.34112 z" />
  <path
     id="polygon152"
     style="fill:#00ff00"
     d="m 577.40793,661.88571 -1.26249,-14.02709 -24.2462,-10.25361 -4.09612,1.2381 -2.76731,3.75581 9.21093,29.53541 1.41716,0.73939 z" />
  <path
     id="polygon153"
     style="fill:#ff0000"
     d="m 607.40145,641.62026 -12.39773,-9.13425 -7.97106,1.64696 -10.88722,13.72565 1.26249,14.02709 15.57203,10.35642 15.61194,-23.65672 z" />
  <path
     id="polygon154"
     style="fill:#00ff00"
     d="m 607.40145,641.62026 24.74729,-14.29793 6.16585,26.18574 -13.84325,5.19744 -15.87944,-10.1201 z" />
  <path
     id="polygon155"
     style="fill:#00ff77"
     d="m 667.26041,647.33552 5.62148,9.24234 22.45543,-3.34745 2.36686,-16.06634 -12.86769,-7.66639 z" />
  <path
     id="polygon156"
     style="fill:#7700ff"
     d="m 721.93723,655.66339 3.16608,-9.66116 -16.47404,-12.9538 -10.92509,4.11564 -2.36686,16.06634 7.54598,8.42761 z" />
  <path
     id="polygon157"
     style="fill:#7700ff"
     d="m 747.63394,646.0186 12.70791,-19.30808 1.52877,-0.0604 18.05038,16.62656 -0.16904,7.4807 -6.04039,7.08388 -15.99813,4.6411 z" />
  <path
     id="polygon158"
     style="fill:#00ff77"
     d="m 779.921,643.27669 11.83846,-12.50223 17.04376,3.3892 0.7269,2.31776 -15.88207,18.83246 -13.89609,-4.55649 z" />
  <path
     id="polygon159"
     style="fill:#ff7700"
     d="m 462.5214,660.29328 9.4662,7.48154 24.6876,-4.1269 2.33651,-11.90586 -11.10595,-14.79192 -2.61217,-0.12147 -21.63627,14.60702 z" />
  <path
     id="polygon160"
     style="fill:#ff0000"
     d="m 496.6752,663.64792 2.33651,-11.90586 20.72807,-5.85338 6.80396,2.80162 2.67272,23.08132 -20.30486,3.82442 -10.3678,-7.41463 z" />
  <path
     id="polygon161"
     style="fill:#00ff77"
     d="m 545.03581,642.59892 -18.49207,6.09138 2.67272,23.08132 3.96041,3.02155 21.06987,-2.65884 z" />
  <path
     id="polygon162"
     style="fill:#0077ff"
     d="m 608.5919,648.58541 -15.61194,23.65672 0.15286,0.35223 26.96831,3.2417 4.37021,-17.13055 z" />
  <path
     id="polygon163"
     style="fill:#ff7700"
     d="m 641.48968,655.17585 23.02106,-8.98838 2.74967,1.14805 5.62148,9.24234 -1.65688,20.46325 -1.52577,1.86289 -11.88831,3.69738 -10.55515,-7.38054 z" />
  <path
     id="polygon164"
     style="fill:#00ff00"
     d="m 702.8833,661.65802 -7.54598,-8.42761 -22.45543,3.34745 -1.65688,20.46325 28.30846,-0.56285 z" />
  <path
     id="polygon165"
     style="fill:#0077ff"
     d="m 730.53788,671.54536 24.7948,-4.78703 2.38076,-4.27596 -10.0795,-16.46377 -15.80921,-3.67171 -6.72142,3.65534 -3.16608,9.66116 z" />
  <path
     id="polygon166"
     style="fill:#00ffff"
     d="m 773.71157,657.84127 11.93057,22.56853 8.93105,-3.8972 10.66258,-7.76463 0.65788,-3.39794 -12.2456,-10.03615 -13.89609,-4.55649 z" />
  <path
     id="polygon167"
     style="fill:#ff7700"
     d="m 418.60759,689.84908 2.30366,0.5538 1.44845,-0.5676 14.09976,-24.79012 -7.48415,-10.16795 -6.83571,-0.66011 -16.24595,11.13293 -0.65788,3.39794 z" />
  <path
     id="polygon168"
     style="fill:#ff0000"
     d="m 446.7165,668.38628 5.25444,19.09202 19.09569,5.3467 0.92097,-25.05018 -9.4662,-7.48154 z" />
  <path
     id="polygon169"
     style="fill:#00ffff"
     d="m 496.6752,663.64792 -24.6876,4.1269 -0.92097,25.05018 2.48434,2.82265 9.41409,0.73393 15.57874,-28.20017 z" />
  <path
     id="polygon170"
     style="fill:#0000ff"
     d="m 592.97996,672.24213 -15.57203,-10.35642 -21.74403,10.98801 4.78291,22.44994 30.8251,-9.64152 1.86091,-13.08778 z" />
  <path
     id="polygon171"
     style="fill:#7700ff"
     d="m 624.47134,658.70551 -4.37021,17.13055 4.25224,5.71567 22.90241,-6.33089 -5.7661,-20.04499 -3.17509,-1.66778 z" />
  <path
     id="polygon172"
     style="fill:#77ff00"
     d="m 730.53788,671.54536 -8.60065,-15.88197 -19.05393,5.99463 -3.34983,14.82024 7.21515,10.24583 22.29427,-11.28176 z" />
  <path
     id="polygon173"
     style="fill:#00ff77"
     d="m 730.53788,671.54536 24.7948,-4.78703 3.7549,21.57919 -1.56592,2.11969 -18.87247,6.01871 -9.6063,-21.03359 z" />
  <path
     id="polygon174"
     style="fill:#ffff00"
     d="m 757.71344,662.48237 15.99813,-4.6411 11.93057,22.56853 -3.49124,9.29856 -23.06332,-1.37084 -3.7549,-21.57919 z" />
  <path
     id="polygon175"
     style="fill:#ffff00"
     d="m 418.60759,689.84908 -13.37182,-21.10111 -10.66258,7.76463 12.65658,18.30757 z" />
  <path
     id="polygon176"
     style="fill:#7700ff"
     d="m 436.45946,665.04516 10.25704,3.34112 5.25444,19.09202 -9.37849,8.12125 -20.23275,-5.76427 z" />
  <path
     id="polygon177"
     style="fill:#77ff00"
     d="m 498.5438,668.18141 10.3678,7.41463 2.32648,17.81007 -15.31509,12.60924 -12.95793,-9.63377 z" />
  <path
     id="polygon178"
     style="fill:#ff7700"
     d="m 529.21646,671.77162 -20.30486,3.82442 2.32648,17.81007 18.88805,5.09445 3.05074,-23.70739 z" />
  <path
     id="polygon179"
     style="fill:#ff0000"
     d="m 560.44681,695.32366 -1.14077,3.29293 -25.15744,5.76288 -4.02247,-5.87891 3.05074,-23.70739 21.06987,-2.65884 1.41716,0.73939 z" />
  <path
     id="polygon180"
     style="fill:#ffff00"
     d="m 620.10113,675.83606 -26.96831,-3.2417 -1.86091,13.08778 7.41958,15.87135 17.7922,2.17982 6.30902,-3.84985 1.56066,-18.33173 z" />
  <path
     id="polygon181"
     style="fill:#00ff00"
     d="m 624.35337,681.55173 -1.56066,18.33173 19.76113,5.7332 7.98657,-4.99648 7.27052,-18.0188 -10.55515,-7.38054 z" />
  <path
     id="polygon182"
     style="fill:#ff0000"
     d="m 706.74862,686.72409 -0.15187,4.70068 -11.53766,14.61773 -10.92899,-1.55382 -14.43086,-25.58468 1.52577,-1.86289 28.30846,-0.56285 z" />
  <path
     id="polygon183"
     style="fill:#00ffff"
     d="m 729.04289,675.44233 9.6063,21.03359 -4.75868,7.6994 -4.22274,1.41146 -23.07102,-14.16201 0.15187,-4.70068 z" />
  <path
     id="polygon184"
     style="fill:#ff7700"
     d="m 801.67774,698.66216 5.55203,-3.84199 -12.65658,-18.30757 -8.93105,3.8972 -3.49124,9.29856 1.99835,3.6844 z" />
  <path
     id="polygon185"
     style="fill:#77ff00"
     d="m 418.60759,689.84908 2.30366,0.5538 2.80512,31.55872 -20.55482,-1.44632 -1.48381,-21.85312 5.55203,-3.84199 z" />
  <path
     id="polygon186"
     style="fill:#00ffff"
     d="m 422.3597,689.83528 20.23275,5.76427 1.95341,17.68557 -19.89536,9.3267 -0.93413,-0.65022 -2.80512,-31.55872 z" />
  <path
     id="polygon187"
     style="fill:#77ff00"
     d="m 442.59245,695.59955 9.37849,-8.12125 19.09569,5.3467 2.48434,2.82265 -12.35338,22.74248 -1.9487,0.66107 -14.70303,-5.76608 z" />
  <path
     id="polygon188"
     style="fill:#ffff00"
     d="m 521.12828,719.61573 -23.99783,-8.69651 -1.20746,-4.90387 15.31509,-12.60924 18.88805,5.09445 4.02247,5.87891 -1.83388,6.19036 z" />
  <path
     id="polygon189"
     style="fill:#77ff00"
     d="m 591.27191,685.68214 7.41958,15.87135 -11.1571,14.9685 -21.7717,-5.82428 -6.45665,-12.08112 1.14077,-3.29293 z" />
  <path
     id="polygon190"
     style="fill:#7700ff"
     d="m 670.78404,714.96069 -20.24363,-14.34051 7.27052,-18.0188 11.88831,-3.69738 14.43086,25.58468 z" />
  <path
     id="polygon191"
     style="fill:#0000ff"
     d="m 695.05909,706.0425 11.53766,-14.61773 23.07102,14.16201 -8.4323,13.78543 -18.71412,3.46331 z" />
  <path
     id="polygon192"
     style="fill:#77ff00"
     d="m 733.89051,704.17532 18.68372,19.83084 10.87912,-7.92586 -5.93169,-25.62309 -18.87247,6.01871 z" />
  <path
     id="polygon193"
     style="fill:#00ff00"
     d="m 778.31091,716.81204 -14.85756,-0.73174 -5.93169,-25.62309 1.56592,-2.11969 23.06332,1.37084 1.99835,3.6844 z" />
  <path
     id="polygon194"
     style="fill:#77ff00"
     d="m 781.36585,719.80494 20.15065,1.70202 1.64505,-0.99168 -1.48381,-21.85312 -17.52849,-5.2694 -5.83834,23.41928 z" />
  <path
     id="polygon195"
     style="fill:#ff0000"
     d="m 473.55097,695.64765 -12.35338,22.74248 23.13322,14.30967 5.10617,-2.04075 7.69347,-19.73983 -1.20746,-4.90387 -12.95793,-9.63377 z" />
  <path
     id="polygon196"
     style="fill:#00ff00"
     d="m 532.31472,710.56983 1.83388,-6.19036 25.15744,-5.76288 6.45665,12.08112 -11.90051,25.72735 -1.74338,0.24619 z" />
  <path
     id="polygon197"
     style="fill:#0077ff"
     d="m 587.53439,716.52199 2.25558,10.28712 24.22545,7.98169 4.24315,-5.50177 -1.77488,-25.55572 -17.7922,-2.17982 z" />
  <path
     id="polygon198"
     style="fill:#ff7700"
     d="m 642.55384,705.61666 -19.76113,-5.7332 -6.30902,3.84985 1.77488,25.55572 22.14797,-1.62177 2.51812,-2.69042 z" />
  <path
     id="polygon199"
     style="fill:#00ff77"
     d="m 668.67184,731.55587 -25.74718,-6.57903 -0.37082,-19.36018 7.98657,-4.99648 20.24363,14.34051 z" />
  <path
     id="polygon200"
     style="fill:#0077ff"
     d="m 668.67184,731.55587 2.1122,-16.59518 13.34606,-10.47201 10.92899,1.55382 7.46226,16.79302 -2.6851,7.60436 -13.25957,9.76914 -4.18048,0.30812 -13.02016,-7.58688 z" />
  <path
     id="polygon201"
     style="fill:#7700ff"
     d="m 729.66777,705.58678 -8.4323,13.78543 10.17676,15.03515 18.64554,-1.66471 2.51646,-8.73649 -18.68372,-19.83084 z" />
  <path
     id="polygon202"
     style="fill:#00ff77"
     d="m 424.6505,722.61182 3.60685,15.86569 -13.5912,13.6854 -16.00255,-4.85558 2.8529,-25.80037 1.64505,-0.99168 20.55482,1.44632 z" />
  <path
     id="polygon203"
     style="fill:#0077ff"
     d="m 424.6505,722.61182 3.60685,15.86569 21.34719,10.035 9.64435,-29.46131 -14.70303,-5.76608 z" />
  <path
     id="polygon204"
     style="fill:#0000ff"
     d="m 461.19759,718.39013 23.13322,14.30967 -7.04906,13.97782 -26.57307,3.7014 -1.10414,-1.86651 9.64435,-29.46131 z" />
  <path
     id="polygon205"
     style="fill:#0077ff"
     d="m 505.76304,741.33008 -16.32606,-10.67103 7.69347,-19.73983 23.99783,8.69651 -1.31899,15.1955 z" />
  <path
     id="polygon206"
     style="fill:#77ff00"
     d="m 519.80929,734.81123 1.31899,-15.1955 11.18644,-9.0459 19.80408,26.10142 -14.01126,10.64284 z" />
  <path
     id="polygon207"
     style="fill:#ffff00"
     d="m 565.76269,710.69771 -11.90051,25.72735 3.24848,1.84918 26.94661,-1.74779 5.7327,-9.71734 -2.25558,-10.28712 z" />
  <path
     id="polygon208"
     style="fill:#0000ff"
     d="m 640.40654,727.66726 -22.14797,1.62177 -4.24315,5.50177 1.60833,16.68609 14.1181,5.74857 11.61577,-9.23634 z" />
  <path
     id="polygon209"
     style="fill:#ffff00"
     d="m 668.67184,731.55587 -25.74718,-6.57903 -2.51812,2.69042 0.95108,20.32186 12.87755,1.81647 15.14087,-16.87533 z" />
  <path
     id="polygon210"
     style="fill:#ff0000"
     d="m 699.83625,730.43988 20.99525,18.6325 10.58073,-14.66502 -10.17676,-15.03515 -18.71412,3.46331 z" />
  <path
     id="polygon211"
     style="fill:#0077ff"
     d="m 781.36585,719.80494 -3.06842,21.39795 -23.80809,0.52953 -4.43157,-8.98977 2.51646,-8.73649 10.87912,-7.92586 14.85756,0.73174 z" />
  <path
     id="polygon212"
     style="fill:#ffff00"
     d="m 781.36585,719.80494 -3.06842,21.39795 9.15939,10.72128 11.20678,-4.61684 2.8529,-25.80037 z" />
  <path
     id="polygon213"
     style="fill:#7700ff"
     d="m 505.76304,741.33008 -16.32606,-10.67103 -5.10617,2.04075 -7.04906,13.97782 8.3319,17.75773 20.00684,-10.7666 z" />
  <path
     id="polygon214"
     style="fill:#00ffff"
     d="m 505.76304,741.33008 14.04625,-6.51885 18.29825,12.50286 -0.49415,2.36146 -16.54987,15.97209 -3.10733,-0.23382 -12.3357,-11.74507 z" />
  <path
     id="polygon215"
     style="fill:#ff0000"
     d="m 568.53937,760.63466 14.44431,-0.22834 5.1146,-5.95225 -4.04101,-17.92762 -26.94661,1.74779 z" />
  <path
     id="polygon216"
     style="fill:#00ff00"
     d="m 584.05727,736.52645 4.04101,17.92762 21.57543,1.04655 5.95004,-4.02373 -1.60833,-16.68609 -24.22545,-7.98169 z" />
  <path
     id="polygon217"
     style="fill:#00ffff"
     d="m 669.37604,732.93026 -15.14087,16.87533 8.6602,19.16046 8.76936,0.32434 10.73147,-28.77325 z" />
  <path
     id="polygon218"
     style="fill:#ff7700"
     d="m 686.57668,740.20902 18.43694,27.46687 15.972,-14.90517 -0.15412,-3.69834 -20.99525,-18.6325 z" />
  <path
     id="polygon219"
     style="fill:#0000ff"
     d="m 720.98562,752.77072 12.72568,7.0305 19.12278,-7.44933 1.65526,-10.61947 -4.43157,-8.98977 -18.64554,1.66471 -10.58073,14.66502 z" />
  <path
     id="polygon220"
     style="fill:#ff0000"
     d="m 787.45682,751.92417 -2.56064,7.57211 -3.96596,5.99119 -16.17667,5.76795 -11.91947,-18.90353 1.65526,-10.61947 23.80809,-0.52953 z" />
  <path
     id="polygon221"
     style="fill:#00ff00"
     d="m 384.89618,759.49628 2.56064,-7.57211 11.20678,-4.61684 16.00255,4.85558 4.34793,21.08932 -5.15881,0.0987 z" />
  <path
     id="polygon222"
     style="fill:#ffff00"
     d="m 449.97005,758.8784 0.73863,-8.49938 -1.10414,-1.86651 -21.34719,-10.035 -13.5912,13.6854 4.34793,21.08932 2.68587,2.74907 8.29398,1.11248 z" />
  <path
     id="polygon223"
     style="fill:#00ff00"
     d="m 469.57463,779.52312 4.78627,0.90534 9.41453,-7.01175 1.83822,-8.98136 -8.3319,-17.75773 -26.57307,3.7014 -0.73863,8.49938 z" />
  <path
     id="polygon224"
     style="fill:#77ff00"
     d="m 505.62049,753.66875 -20.00684,10.7666 -1.83822,8.98136 18.44081,7.52585 15.73995,-15.52874 z" />
  <path
     id="polygon225"
     style="fill:#00ff77"
     d="m 538.10754,747.31409 14.01126,-10.64284 1.74338,-0.24619 3.24848,1.84918 11.42871,22.36042 -13.72167,16.06837 -17.20431,-27.02748 z" />
  <path
     id="polygon226"
     style="fill:#00ff77"
     d="m 654.23517,749.80559 8.6602,19.16046 -13.83845,9.1341 -14.66422,-8.09791 -4.65085,-12.77678 11.61577,-9.23634 z" />
  <path
     id="polygon227"
     style="fill:#ffff00"
     d="m 686.57668,740.20902 18.43694,27.46687 -0.37791,1.39626 -28.27511,4.11285 -4.69587,-3.89461 10.73147,-28.77325 z" />
  <path
     id="polygon228"
     style="fill:#0077ff"
     d="m 743.50285,783.30269 19.93348,-9.17759 1.31722,-2.86968 -11.91947,-18.90353 -19.12278,7.44933 2.54479,19.78085 z" />
  <path
     id="polygon229"
     style="fill:#0077ff"
     d="m 439.79214,790.40517 -9.79821,-13.29139 19.97612,-18.23538 19.60458,20.64472 -23.51927,14.9134 z" />
  <path
     id="polygon230"
     style="fill:#ff7700"
     d="m 521.06352,765.64764 9.85272,16.30436 -10.95213,17.57518 -10.99421,-2.04358 -6.75366,-16.54104 15.73995,-15.52874 z" />
  <path
     id="polygon231"
     style="fill:#00ff00"
     d="m 521.06352,765.64764 9.85272,16.30436 20.76681,-0.80677 2.86249,-2.34774 0.27216,-2.09446 -17.20431,-27.02748 z" />
  <path
     id="polygon232"
     style="fill:#0077ff"
     d="m 554.8177,776.70303 -0.27216,2.09446 18.83688,9.96968 13.82439,-11.47056 -4.22313,-16.89029 -14.44431,0.22834 z" />
  <path
     id="polygon233"
     style="fill:#00ffff"
     d="m 603.8257,783.3208 -16.61889,-6.02419 -4.22313,-16.89029 5.1146,-5.95225 21.57543,1.04655 -4.44336,27.27028 z" />
  <path
     id="polygon234"
     style="fill:#7700ff"
     d="m 605.23035,782.7709 4.44336,-27.27028 5.95004,-4.02373 14.1181,5.74857 4.65085,12.77678 -16.57316,16.51299 z" />
  <path
     id="polygon235"
     style="fill:#77ff00"
     d="m 736.25609,779.58207 -2.54479,-19.78085 -12.72568,-7.0305 -15.972,14.90517 -0.37791,1.39626 3.6312,9.19652 10.96955,6.03459 z" />
  <path
     id="polygon236"
     style="fill:#77ff00"
     d="m 780.93022,765.48747 10.75977,14.70065 22.16528,-6.83719 -28.95909,-13.85465 z" />
  <path
     id="polygon237"
     style="fill:#0077ff"
     d="m 413.85527,773.35093 5.15881,-0.0987 2.68587,2.74907 -12.7749,23.5431 -10.20051,-0.23961 -7.9039,-0.83485 0.86935,-18.28182 z" />
  <path
     id="polygon238"
     style="fill:#00ff77"
     d="m 498.46086,805.06599 -23.40709,-21.45348 -0.69287,-3.18405 9.41453,-7.01175 18.44081,7.52585 6.75366,16.54104 z" />
  <path
     id="polygon239"
     style="fill:#ffff00"
     d="m 520.02812,799.61475 29.51894,-3.05401 2.13599,-15.41551 -20.76681,0.80677 -10.95213,17.57518 z" />
  <path
     id="polygon240"
     style="fill:#00ff77"
     d="m 603.8257,783.3208 -16.61889,-6.02419 -13.82439,11.47056 2.98655,11.6824 2.63248,1.90595 19.98071,-7.16503 z" />
  <path
     id="polygon241"
     style="fill:#00ff00"
     d="m 617.81954,786.51523 16.57316,-16.51299 14.66422,8.09791 0.13771,16.81309 -13.41893,9.33068 -9.59608,-2.24368 z" />
  <path
     id="polygon242"
     style="fill:#77ff00"
     d="m 678.64841,791.54732 -2.28781,-18.36232 -4.69587,-3.89461 -8.76936,-0.32434 -13.83845,9.1341 0.13771,16.81309 17.0429,8.7233 z" />
  <path
     id="polygon243"
     style="fill:#0000ff"
     d="m 678.64841,791.54732 16.61389,5.27051 13.00461,-18.54916 -3.6312,-9.19652 -28.27511,4.11285 z" />
  <path
     id="polygon244"
     style="fill:#ff0000"
     d="m 744.49142,800.56108 -0.98857,-17.25839 -7.24676,-3.72062 -17.01963,4.72119 1.65751,14.4573 z" />
  <path
     id="polygon245"
     style="fill:#77ff00"
     d="m 744.49142,800.56108 -0.98857,-17.25839 19.93348,-9.17759 8.32332,21.51413 -25.04485,9.15056 -0.32239,-0.14876 z" />
  <path
     id="polygon246"
     style="fill:#00ffff"
     d="m 771.75965,795.63923 10.41261,7.93109 8.64838,-5.10038 0.86935,-18.28182 -10.75977,-14.70065 -16.17667,5.76795 -1.31722,2.86968 z" />
  <path
     id="polygon247"
     style="fill:#7700ff"
     d="m 418.06967,811.89507 -9.14462,-12.35067 12.7749,-23.5431 8.29398,1.11248 9.79821,13.29139 z" />
  <path
     id="polygon248"
     style="fill:#ffff00"
     d="m 472.00736,807.62356 3.04641,-24.01105 -0.69287,-3.18405 -4.78627,-0.90534 -23.51927,14.9134 2.5594,10.03031 z" />
  <path
     id="polygon249"
     style="fill:#7700ff"
     d="m 551.68305,781.14523 2.86249,-2.34774 18.83688,9.96968 2.98655,11.6824 -22.21034,13.06359 -2.77298,-1.83207 -1.83859,-15.12035 z" />
  <path
     id="polygon250"
     style="fill:#77ff00"
     d="m 603.8257,783.3208 -4.84354,11.86969 7.5922,21.07629 2.13541,0.26379 17.46985,-14.53033 -8.36008,-15.48501 -12.58919,-3.74433 z" />
  <path
     id="polygon251"
     style="fill:#7700ff"
     d="m 720.89397,798.76056 -1.65751,-14.4573 -10.96955,-6.03459 -13.00461,18.54916 3.26517,9.7755 18.20498,2.42374 z" />
  <path
     id="polygon266"
     style="fill:#7700ff"
     d="m 417.54747,512.48102 -29.55543,-14.82848 -2.51121,3.02426 4.82041,22.87247 27.39814,-9.51085 z" />
  <path
     id="polygon421"
     style="fill:#ff0000"
     d="m 474.87774,812.29157 21.16642,-3.06067 2.4167,-4.16491 -23.40709,-21.45348 -3.04641,24.01105 z" />
</svg>
